<svg width="460" height="266" viewBox="0 0 460 266" fill="none" xmlns="http://www.w3.org/2000/svg">
<path d="M172.607 175.419C169.008 173.491 165.956 174.419 162.567 177.991C164.116 169.317 164.063 158.797 157.192 157.026C150.115 155.195 146.105 159.605 141.957 170.264C142.114 161.118 140.307 149.321 132.74 148.842C124.23 148.303 121.417 155.307 119.304 170.844C116.659 162.155 109.354 146.936 100.769 149.954C92.353 152.908 92.8954 161.028 97.5711 177.583C92.959 170.436 83.731 159.811 77.5554 163.851C71.679 167.684 73.2874 173.933 79.7997 185.542C75.5018 183.67 71.0318 183.487 67.4559 187.021C59.4286 194.958 63.2889 202.475 74.4283 216.428C85.5676 230.381 165.586 205.699 169.382 199.387C173.179 193.075 179.145 178.916 172.607 175.419Z" fill="white" stroke="#F4C3CF" stroke-width="3" stroke-linecap="round" stroke-linejoin="round"/>
<path d="M173.235 199.124L173.299 198.918L65.6978 199.252L65.7652 199.458C62.9431 200.008 60.4438 201.631 58.7917 203.986C57.1395 206.341 56.4629 209.245 56.9038 212.089L64.9572 264.045L174.039 263.712L182.096 211.756C182.536 208.912 181.859 206.009 180.207 203.654C178.555 201.299 176.057 199.676 173.235 199.124Z" fill="#CFF1FC"/>
<path class='svg-fill-accent-last' d="M349.498 180.395C347.828 180.395 346.159 180.493 344.5 180.687C335.568 168.332 325.315 157.85 314.542 151.193C286.488 133.901 247.96 138.839 212.002 152.163C187.288 161.316 155.961 190.787 135.874 211.689C109.691 213.658 89.5626 231.497 90.7708 251.904C91.0368 256.288 92.2627 260.56 94.3617 264.416L182.242 265C182.396 264.764 182.542 264.521 182.687 264.281L313.027 263.832C313.169 264.031 313.315 264.207 313.461 264.416L385.624 264.293C392.304 255.431 396.318 244.076 396.318 231.677C396.307 203.351 375.345 180.395 349.498 180.395Z" fill="#5AA5BD"/>
<path d="M317.097 152.855C283.933 173.428 254.113 173.88 234.838 170.571C216.951 167.501 204.068 160.594 199.853 157.91C199.137 158.314 198.42 158.728 197.702 159.152C201.14 161.522 214.606 169.302 234.056 172.712C240.39 173.826 246.808 174.386 253.238 174.386C259.811 174.382 266.371 173.802 272.842 172.653C288.553 169.86 304.125 163.667 319.087 154.252C318.413 153.773 317.75 153.307 317.097 152.855Z" fill="white"/>
<path d="M313.659 188.268C318.933 180.855 325.457 176.688 333.054 175.88C335.806 175.585 338.589 175.758 341.283 176.393C340.582 175.487 339.874 174.594 339.158 173.716C337.096 173.449 335.01 173.421 332.942 173.634C327.23 174.218 318.933 177.003 311.845 186.965C311.673 187.208 311.604 187.509 311.654 187.803C311.704 188.096 311.868 188.358 312.111 188.53C312.3 188.666 312.528 188.739 312.761 188.74C312.938 188.737 313.111 188.693 313.267 188.611C313.422 188.529 313.557 188.412 313.659 188.268Z" fill="white"/>
<path d="M314.063 214.579H314.086C314.38 214.579 314.663 214.463 314.873 214.257C315.082 214.05 315.203 213.769 315.208 213.475C315.271 210.173 316.603 202.704 321.193 195.662C326.519 187.481 334.356 182.439 344.474 180.653C343.984 179.979 343.49 179.305 342.978 178.639C332.878 180.698 324.705 186.126 319.3 194.434C314.755 201.416 313.042 209.034 312.941 213.433C312.938 213.583 312.965 213.731 313.02 213.87C313.075 214.009 313.157 214.135 313.262 214.242C313.366 214.349 313.491 214.434 313.628 214.491C313.766 214.549 313.914 214.579 314.063 214.579Z" fill="white"/>
<path d="M155.58 203.509C151.333 203.332 147.08 203.658 142.91 204.482C141.781 205.615 140.675 206.738 139.593 207.851C143.741 205.571 167.381 202.73 177.144 213.841C177.25 213.96 177.38 214.054 177.525 214.119C177.67 214.184 177.827 214.217 177.986 214.216C178.261 214.217 178.527 214.117 178.734 213.935C178.957 213.738 179.093 213.461 179.111 213.164C179.13 212.867 179.031 212.575 178.835 212.351C172.547 205.19 161.565 203.741 155.58 203.509Z" fill="white"/>
<path d="M174.814 219.588C161.595 209.607 145.156 209.012 138.183 209.278L135.864 211.678C139.859 211.352 158.999 210.457 173.46 221.381C173.698 221.561 173.997 221.639 174.292 221.598C174.587 221.557 174.854 221.4 175.033 221.162C175.213 220.925 175.291 220.625 175.25 220.33C175.209 220.035 175.052 219.768 174.814 219.588Z" fill="white"/>
<path d="M117.785 264.045C117.785 264.045 130.043 227.731 164.568 234.324C199.093 240.916 246.322 255.079 246.322 255.079V264.18L117.785 264.045Z" fill="white" stroke="#15303F" stroke-width="3" stroke-linecap="round" stroke-linejoin="round"/>
<path d="M390.374 129.928C389.533 129.461 388.812 128.804 388.27 128.008C387.727 127.212 387.378 126.301 387.251 125.346C386.877 122.134 389.032 108.297 392.488 106.365C395.944 104.433 411.774 95.8411 414.696 96.0395C417.617 96.2379 418.848 121.647 390.374 129.928Z" fill="white"/>
<path d="M392.054 107.911C397.964 87.2043 402.804 82.5807 405.591 84.5948C408.116 86.4218 402.973 99.6149 401.476 106.462" fill="white"/>
<path d="M392.054 107.911C397.964 87.2043 402.804 82.5807 405.591 84.5948C408.116 86.4218 402.973 99.6149 401.476 106.462" stroke="#15303F" stroke-width="3" stroke-linecap="round" stroke-linejoin="round"/>
<path d="M418.137 103.4C421.099 98.5853 425.992 98.8249 423.437 107.031C420.946 115.032 419.098 125.466 414.422 130.179C409.747 134.893 408.063 137.004 408.063 137.004C408.063 137.004 398.712 171.933 393.404 200.974C385.721 242.972 371.234 251.051 357.689 246.24C344.145 241.429 341.642 222.444 360.139 185.542C378.636 148.64 388.388 127.139 388.388 127.139" fill="white"/>
<path d="M418.137 103.4C421.099 98.5853 425.992 98.8249 423.437 107.031C420.946 115.032 419.098 125.466 414.422 130.179C409.747 134.893 408.063 137.004 408.063 137.004C408.063 137.004 398.712 171.933 393.404 200.974C385.721 242.972 371.234 251.051 357.689 246.24C344.145 241.429 341.642 222.444 360.139 185.542C378.636 148.64 388.388 127.139 388.388 127.139" stroke="#15303F" stroke-width="3" stroke-linecap="round" stroke-linejoin="round"/>
<path d="M388.699 127.802C386.017 125.986 386.338 115.425 383.327 110.824C379.587 105.088 375.928 99.1432 382.852 100.034C388.788 100.802 390.677 106.024 392.054 107.896" fill="white"/>
<path d="M388.699 127.802C386.017 125.986 386.338 115.425 383.327 110.824C379.587 105.088 375.928 99.1432 382.852 100.034C388.788 100.802 390.677 106.024 392.054 107.896" stroke="#15303F" stroke-width="3" stroke-linecap="round" stroke-linejoin="round"/>
<path d="M414.677 112.183C414.677 112.183 419.936 99.3603 421.702 93.4302C423.636 86.9384 416.839 86.025 413.562 95.3208" fill="white"/>
<path d="M414.677 112.183C414.677 112.183 419.936 99.3603 421.702 93.4302C423.636 86.9384 416.839 86.025 413.562 95.3208" stroke="#15303F" stroke-width="3" stroke-linecap="round" stroke-linejoin="round"/>
<path d="M408.501 108.817C408.501 108.817 418.855 85.3361 414.224 83.2471C410.001 81.3415 406.781 89.9073 401.465 106.459" fill="white"/>
<path d="M408.501 108.817C408.501 108.817 418.855 85.3361 414.224 83.2471C410.001 81.3415 406.781 89.9073 401.465 106.459" stroke="#15303F" stroke-width="3" stroke-linecap="round" stroke-linejoin="round"/>
<path d="M239.151 125.866L240.603 152.342C240.603 152.342 238.145 166.628 257.974 163.982C277.724 161.342 275.3 149.639 275.3 149.639L269.188 116.75L239.151 125.866Z" fill="white" stroke="#15303F" stroke-width="3" stroke-linecap="round" stroke-linejoin="round"/>
<path d="M276.781 83.3968C276.781 83.3968 292.118 77.6389 292.716 93.6248C293.315 109.611 276.781 105.47 276.781 105.47" fill="white"/>
<path d="M276.781 83.3968C276.781 83.3968 292.118 77.6389 292.716 93.6248C293.315 109.611 276.781 105.47 276.781 105.47" stroke="#15303F" stroke-width="3" stroke-linecap="round" stroke-linejoin="round"/>
<path d="M237.206 58.2573H263.532C267.401 58.2573 271.112 59.7956 273.847 62.5338C276.583 65.2719 278.12 68.9857 278.12 72.8581V103.797C278.12 111.784 274.95 119.443 269.307 125.091C263.665 130.739 256.011 133.912 248.031 133.912C244.08 133.912 240.167 133.133 236.517 131.619C232.866 130.106 229.549 127.888 226.755 125.091C223.961 122.295 221.745 118.975 220.233 115.321C218.72 111.667 217.942 107.751 217.942 103.797V77.534C217.942 72.4215 219.971 67.5184 223.583 63.9033C227.195 60.2883 232.094 58.2573 237.202 58.2573H237.206Z" fill="white" stroke="#15303F" stroke-width="3" stroke-linecap="round" stroke-linejoin="round"/>
<path class='svg-fill-accent-first' d="M285.123 118.072C285.132 111.517 284.518 104.976 283.29 98.5368C283.29 98.4133 283.29 98.2822 283.29 98.1624C283.285 97.032 282.834 95.9493 282.035 95.15C281.237 94.3507 280.155 93.8995 279.025 93.8945V98.1624L279.138 102.43C280.003 102.404 280.839 102.114 281.535 101.599C282.916 110.21 285.65 135.885 274.14 157.711C272.027 161.713 270.044 165.412 268.129 168.987C257.282 189.249 250.1 202.633 250.268 214.586C250.268 214.884 250.386 215.17 250.597 215.381C250.807 215.591 251.093 215.71 251.39 215.71C251.688 215.71 251.973 215.591 252.184 215.381C252.394 215.17 252.512 214.884 252.512 214.586C252.352 203.217 259.417 190.035 270.093 170.08C272.012 166.505 273.994 162.803 276.108 158.793C283.664 144.473 285.179 128.749 285.123 118.072Z" fill="#F4C3CF"/>
<path class='svg-fill-accent-first' d="M215.017 102.88C215.543 103.176 216.126 103.356 216.727 103.407V94.9165C215.775 95.0033 214.881 95.4073 214.186 96.0638C213.491 96.7202 213.037 97.5911 212.896 98.5367C212.772 98.7216 212.706 98.9392 212.705 99.1619C212.705 100.869 212.705 141.205 224.675 159.403C236.914 178.047 240.7 188.664 241.541 206.743C241.555 207.032 241.679 207.304 241.888 207.504C242.097 207.703 242.375 207.814 242.664 207.814H242.716C243.013 207.8 243.292 207.669 243.493 207.45C243.694 207.23 243.799 206.939 243.786 206.642C242.922 188.088 239.058 177.216 226.557 158.175C217.022 143.672 215.32 113.415 215.017 102.88Z" fill="#F4C3CF"/>
<path d="M238.83 85.7329L239.226 110.011C239.226 110.011 241.014 112.595 243.891 107.331" stroke="#15303F" stroke-width="3" stroke-linecap="round" stroke-linejoin="round"/>
<path d="M238.83 115.174C241.014 117.731 246.146 117.312 251.233 113.983C251.233 113.983 253.216 120.486 243.344 121.471" stroke="#15303F" stroke-width="3" stroke-linecap="round" stroke-linejoin="round"/>
<path d="M248.379 77.9122C248.679 77.8374 251.877 73.2213 256.788 77.1635" stroke="#15303F" stroke-width="3" stroke-linecap="round" stroke-linejoin="round"/>
<path d="M256.788 95.7626C257.815 95.7626 258.647 94.4736 258.647 92.8836C258.647 91.2936 257.815 90.0046 256.788 90.0046C255.761 90.0046 254.929 91.2936 254.929 92.8836C254.929 94.4736 255.761 95.7626 256.788 95.7626Z" fill="#15303F"/>
<path d="M229.594 96.5038C230.621 96.5038 231.453 95.2148 231.453 93.6248C231.453 92.0348 230.621 90.7458 229.594 90.7458C228.567 90.7458 227.735 92.0348 227.735 93.6248C227.735 95.2148 228.567 96.5038 229.594 96.5038Z" fill="#15303F"/>
<path d="M223.65 77.6988C223.95 77.6351 228.001 72.0831 232.082 77.3244" stroke="#15303F" stroke-width="3" stroke-linecap="round" stroke-linejoin="round"/>
<path d="M255.531 51.7133C248.248 51.8069 242.72 52.1738 239.406 52.7802C212.635 58.8751 216.962 78.7321 216.962 78.7321C216.962 78.7321 230.054 81.2292 240.711 65.438C240.711 65.438 255.348 77.3919 276.995 82.2064C277.342 82.124 277.743 82.0154 278.117 81.8956V82.9926C279.9 82.5183 281.746 82.3251 283.589 82.4198C283.35 74.5915 281.951 64.7267 275.506 58.3585C270.946 53.836 264.213 51.5972 255.531 51.7133Z" fill="#15303F"/>
<path d="M284.719 80.5104C283.866 70.6343 281.509 50.811 256.788 50.5602C251.238 50.5042 245.69 50.8118 240.18 51.4811" stroke="white" stroke-width="3" stroke-linecap="round" stroke-linejoin="round"/>
<path d="M325.809 35.4128C316.581 8.98549 290.374 -5.88106 267.288 2.20176C248.312 8.84322 237.363 28.9249 239.174 50.5377C242.649 49.9237 248.129 49.5606 255.501 49.467C264.804 49.3472 272.064 51.7993 277.088 56.7598C284.195 63.7944 285.639 74.4866 285.848 82.7903C289.286 83.7225 292.45 86.5341 292.716 93.6248C292.742 94.3436 292.114 99.8395 292.267 99.8208C292.243 101.99 292.832 104.122 293.965 105.972C296.539 110.127 301.787 112.711 309.571 113.617H309.702C310 113.634 310.292 113.532 310.515 113.334C310.737 113.136 310.872 112.857 310.89 112.559C310.907 112.261 310.805 111.969 310.607 111.746C310.409 111.523 310.13 111.388 309.833 111.37C302.782 110.539 298.091 108.33 295.892 104.8C295.114 103.539 294.654 102.108 294.549 100.629C296.472 102.876 299.786 105.298 305.067 105.298C306.46 105.29 307.847 105.139 309.208 104.845C309.357 104.82 309.5 104.765 309.627 104.684C309.754 104.602 309.864 104.496 309.949 104.371C310.034 104.247 310.094 104.106 310.123 103.958C310.153 103.809 310.152 103.657 310.122 103.509C310.091 103.361 310.03 103.22 309.944 103.096C309.858 102.972 309.748 102.867 309.62 102.786C309.492 102.706 309.349 102.652 309.2 102.628C309.051 102.604 308.898 102.611 308.752 102.647C301.948 104.062 298.147 101.468 296.191 99.1544C297.724 98.8181 299.236 98.3892 300.717 97.8703C323.804 89.8062 335.037 61.8364 325.809 35.4128Z" fill="#15303F"/>
<path d="M258.426 107.327C265.987 107.327 272.117 101.192 272.117 93.6248C272.117 86.0573 265.987 79.9226 258.426 79.9226C250.865 79.9226 244.736 86.0573 244.736 93.6248C244.736 101.192 250.865 107.327 258.426 107.327Z" stroke="#15303F" stroke-width="3" stroke-linecap="round" stroke-linejoin="round"/>
<path d="M235.504 93.2542H244.437" stroke="#15303F" stroke-width="3" stroke-linecap="round" stroke-linejoin="round"/>
<path d="M270.396 86.972L278.12 82.603" stroke="#15303F" stroke-width="3" stroke-linecap="round" stroke-linejoin="round"/>
<path d="M221.369 107.327C228.93 107.327 235.059 101.192 235.059 93.6248C235.059 86.0573 228.93 79.9226 221.369 79.9226C213.808 79.9226 207.678 86.0573 207.678 93.6248C207.678 101.192 213.808 107.327 221.369 107.327Z" stroke="#15303F" stroke-width="3" stroke-linecap="round" stroke-linejoin="round"/>
<path class='svg-fill-accent-first' d="M315.518 250.04H307.742L303.919 193.408C303.764 191.466 302.89 189.651 301.469 188.319C300.049 186.987 298.182 186.233 296.236 186.205H187.838C186.911 186.192 185.992 186.373 185.14 186.737C184.287 187.1 183.52 187.639 182.888 188.318C182.256 188.996 181.772 189.799 181.469 190.676C181.166 191.553 181.05 192.483 181.128 193.408L185.358 256.105C185.513 258.047 186.386 259.862 187.807 261.195C189.228 262.527 191.095 263.28 193.041 263.308L315.518 263.151C316.051 263.151 316.578 263.046 317.07 262.842C317.562 262.638 318.009 262.339 318.386 261.962C318.762 261.585 319.061 261.138 319.265 260.645C319.468 260.153 319.573 259.625 319.573 259.092V254.098C319.573 253.565 319.468 253.038 319.265 252.545C319.061 252.053 318.762 251.605 318.386 251.229C318.009 250.852 317.562 250.553 317.07 250.349C316.578 250.145 316.051 250.04 315.518 250.04Z" fill="#F4C3CF"/>
<path d="M249.707 223.654C248.153 222.041 246.138 220.949 243.939 220.528C244.295 220.016 244.512 219.42 244.567 218.798C244.654 217.824 244.37 216.853 243.773 216.079C243.176 215.305 242.31 214.784 241.347 214.62C241.306 214.62 241.261 214.62 241.22 214.62C240.801 213.074 240.011 210.543 239.106 209.461C238.94 209.259 238.711 209.12 238.456 209.064C238.201 209.008 237.935 209.04 237.7 209.154C237.597 209.212 237.51 209.293 237.445 209.39C237.38 209.488 237.338 209.6 237.324 209.716C237.31 209.833 237.323 209.951 237.363 210.062C237.403 210.172 237.468 210.272 237.554 210.352C238.149 211.064 238.874 213.28 239.327 214.968C238.808 215.244 238.368 215.648 238.047 216.141C237.726 216.634 237.536 217.201 237.494 217.787C237.45 218.337 237.522 218.889 237.705 219.409C237.888 219.929 238.178 220.404 238.556 220.805C237.892 221.016 237.255 221.306 236.66 221.67C232.762 224.092 232.283 228.914 235.59 232.437C238.897 235.96 244.74 236.854 248.637 234.432C252.535 232.01 253.017 227.177 249.707 223.654Z" fill="white"/>
<path d="M248.065 209.278C248.065 209.278 242.454 208.155 241.706 212.831C241.721 212.838 246.131 214.422 248.065 209.278Z" fill="white"/>
<path d="M2 264.408H458" stroke="#15303F" stroke-width="3" stroke-linecap="round" stroke-linejoin="round"/>
</svg>
