<svg width="510" height="263" viewBox="0 0 510 263" fill="none" xmlns="http://www.w3.org/2000/svg">
<path d="M99.3145 226.149L91.77 166.172C88.7986 142.559 105.684 123.415 129.511 123.415H169.351" stroke="#15303F" stroke-width="3" stroke-linecap="round" stroke-linejoin="round"/>
<path d="M194.323 122.361L199.27 115.417L197.968 106.093C197.619 105.433 197.26 104.746 196.892 104.037C169.877 108.044 166.59 119.328 172.657 131.414C127.845 140.136 108.334 208.704 119.991 241.237C123.312 250.484 125.977 259.73 135.844 259.835" stroke="#15303F" stroke-width="3" stroke-linecap="round" stroke-linejoin="round"/>
<path class='svg-fill-accent-first' d="M208.413 147.287C208.413 147.228 208.413 147.17 208.413 147.111C209.879 147.253 211.301 147.262 212.674 146.079C216.075 143.141 217.281 142.26 217.281 142.26C217.281 142.26 217.59 142.63 218.137 143.255C218.808 142.022 219.507 140.743 220.221 139.449C205.537 128.112 194.323 122.361 194.323 122.361L193.494 121.769L188.102 128.325C188.102 128.325 196.877 134.354 208.413 147.287Z" fill="#F4C3CF"/>
<path class='svg-fill-accent-first' d="M279.393 253.707C279.393 253.707 255.894 190.71 258.884 171.187C260.514 160.538 257.956 148.461 254.425 139.131L247.694 139.566L239.636 158.559C240.162 158.688 240.688 158.796 241.213 158.867C241.213 158.867 240.904 160.861 240.143 165.444C239.633 168.499 240.508 168.835 241.201 170.955C242.094 172.383 242.781 173.985 242.026 176.463C241.779 177.274 241.192 184.909 239.862 195.265C242.336 200.505 244.698 206.034 246.912 211.909C261.16 249.796 259.679 253.929 259.679 253.929L279.393 253.707Z" fill="#F4C3CF"/>
<path d="M358.972 259.339C357.281 248.243 345.219 188.685 276.211 136.444C274.665 127.111 270.754 112.421 250.653 105.554" stroke="#15303F" stroke-width="3" stroke-linecap="round" stroke-linejoin="round"/>
<path d="M264.48 167.87C264.48 167.87 263.738 187.991 268.157 202.456" stroke="#15303F" stroke-width="3" stroke-linecap="round" stroke-linejoin="round"/>
<path d="M275.296 136.213C275.516 137.526 275.686 138.734 275.85 139.794C277.748 152.068 273.685 160.217 270.998 165.867C278.212 160.781 283.076 151.109 285.531 143.734C282.565 141.366 278.518 138.605 275.296 136.213Z" fill="#15303F"/>
<path d="M173.371 130.868C168.325 131.895 160.032 134.4 154.056 138.521C158.23 140.79 178.903 153.131 195.798 160.535C195.931 160.458 196.858 158.917 197.322 158.316C187.972 150.924 178.136 140.389 173.371 130.868Z" fill="#15303F"/>
<path d="M186.98 81.7773C186.98 81.7773 175.505 84.8781 180.149 94.6457C183.377 101.427 189.506 99.0163 193.161 96.9604" stroke="#15303F" stroke-width="3" stroke-linecap="round" stroke-linejoin="round"/>
<path d="M190.04 83.6326L193.645 82.4275C196.023 83.8607 203.877 93.5883 206.409 98.4089C206.409 98.4089 217.939 90.9529 235.938 86.1847C235.938 86.1847 245.736 83.9532 249.997 84.1319C248.76 74.2688 246.231 61.6686 241.778 50.403C235.155 33.6572 214.662 40.1545 211.687 41.1563C179.725 51.9965 190.009 83.5617 190.009 83.5617L190.04 83.6326Z" stroke="#15303F" stroke-width="3" stroke-linecap="round" stroke-linejoin="round"/>
<path d="M226.012 124.965C222.166 124.965 218.508 124.327 215.629 123.193C206.291 119.516 204.306 117.146 200.955 111.555C197.603 105.963 187.099 84.619 187.099 84.619L193.645 82.4275C196.023 83.8607 203.877 93.5883 206.409 98.4089C206.409 98.4089 217.939 90.953 235.938 86.1847C235.938 86.1847 245.832 83.9285 250.065 84.132C250.065 84.132 252.087 94.1616 250.875 103.994" stroke="#15303F" stroke-width="3" stroke-linecap="round" stroke-linejoin="round"/>
<path d="M187.903 87.4084C187.903 87.4084 181.991 80.5751 177.721 72.4103C173.702 64.7355 175.368 55.2268 182.032 49.6787C187.61 45.0215 192.919 46.2544 192.919 46.2544C192.919 46.2544 183.315 36.5022 190.887 23.8865C192.213 21.6792 193.976 19.7648 196.07 18.2607C198.164 16.7566 200.544 15.6944 203.063 15.1391C215.493 12.4237 221.925 21.8738 221.925 21.8738C221.925 21.8738 229.067 -5.61667 259.743 1.94715C262.835 2.71154 266.926 5.97256 269.081 8.31506C282.135 22.5211 257.541 49.3366 242.579 54.7059C226.151 60.5991 215.586 60.2755 209.13 57.52C213.771 58.9285 213.941 85.0259 187.903 87.4084Z" fill="#15303F"/>
<path d="M235.313 78.9106L241.109 94.2787L235.152 94.2479" stroke="#15303F" stroke-width="3" stroke-linecap="round" stroke-linejoin="round"/>
<path d="M232.132 107.597C233.749 107.597 235.061 106.29 235.061 104.678C235.061 103.066 233.749 101.759 232.132 101.759C230.515 101.759 229.203 103.066 229.203 104.678C229.203 106.29 230.515 107.597 232.132 107.597Z" fill="#15303F"/>
<path d="M242.168 80.1815C243.066 79.9577 243.512 78.653 243.164 77.2674C242.817 75.8819 241.807 74.9401 240.909 75.164C240.011 75.3879 239.565 76.6925 239.912 78.0781C240.26 79.4637 241.27 80.4054 242.168 80.1815Z" fill="#15303F"/>
<path d="M226.444 83.8107C227.342 83.5868 227.788 82.2821 227.441 80.8966C227.093 79.511 226.083 78.5693 225.185 78.7932C224.287 79.017 223.841 80.3217 224.189 81.7073C224.536 83.0928 225.546 84.0345 226.444 83.8107Z" fill="#15303F"/>
<path d="M215.552 71.5102C216.109 70.2569 216.994 69.1757 218.113 68.3792C219.232 67.5828 220.546 67.1004 221.916 66.9824" stroke="#15303F" stroke-width="3" stroke-linecap="round" stroke-linejoin="round"/>
<path d="M236.782 62.9971C236.782 62.9971 241 60.707 243.05 64.1005" stroke="#15303F" stroke-width="3" stroke-linecap="round" stroke-linejoin="round"/>
<path class='svg-fill-accent-last' d="M419.729 174.137H299.512C298.747 174.137 298.003 174.395 297.403 174.869C296.803 175.343 296.38 176.004 296.204 176.747L279.489 247.275H235.913C235.913 247.275 233.498 259.709 247.579 259.709H401.063C401.829 259.709 402.572 259.451 403.172 258.977C403.773 258.503 404.195 257.841 404.371 257.098L423.044 178.307C423.162 177.809 423.166 177.29 423.054 176.791C422.942 176.291 422.719 175.823 422.4 175.422C422.081 175.02 421.675 174.696 421.213 174.474C420.75 174.251 420.243 174.136 419.729 174.137Z" fill="#5AA5BD"/>
<path class='svg-fill-accent-last' d="M372.039 64.2053H371.092C370.239 64.2053 369.546 64.8953 369.546 65.7464V68.1783C369.546 69.0295 370.239 69.7195 371.092 69.7195H372.039C372.893 69.7195 373.585 69.0295 373.585 68.1783V65.7464C373.585 64.8953 372.893 64.2053 372.039 64.2053Z" fill="#5AA5BD"/>
<path class='svg-fill-accent-first' d="M366.448 64.2053H341.774C340.92 64.2053 340.228 64.8953 340.228 65.7464V68.1783C340.228 69.0295 340.92 69.7195 341.774 69.7195H366.448C367.302 69.7195 367.994 69.0295 367.994 68.1783V65.7464C367.994 64.8953 367.302 64.2053 366.448 64.2053Z" fill="#F4C3CF"/>
<path class='svg-fill-accent-first' d="M368.962 89.8186H341.774C340.92 89.8186 340.228 90.5086 340.228 91.3597V93.7916C340.228 94.6428 340.92 95.3327 341.774 95.3327H368.962C369.816 95.3327 370.508 94.6428 370.508 93.7916V91.3597C370.508 90.5086 369.816 89.8186 368.962 89.8186Z" fill="#F4C3CF"/>
<path class='svg-fill-accent-last' d="M393.302 81.29H349.43C348.576 81.29 347.884 81.98 347.884 82.8312V85.263C347.884 86.1142 348.576 86.8042 349.43 86.8042H393.302C394.156 86.8042 394.848 86.1142 394.848 85.263V82.8312C394.848 81.98 394.156 81.29 393.302 81.29Z" fill="#5AA5BD"/>
<path class='svg-fill-accent-last' d="M421.297 81.29H399.022C398.168 81.29 397.476 81.98 397.476 82.8312V85.263C397.476 86.1142 398.168 86.8042 399.022 86.8042H421.297C422.151 86.8042 422.843 86.1142 422.843 85.263V82.8312C422.843 81.98 422.151 81.29 421.297 81.29Z" fill="#5AA5BD"/>
<path class='svg-fill-accent-first' d="M429.884 72.7646H428.938C428.084 72.7646 427.391 73.4546 427.391 74.3058V76.7377C427.391 77.5888 428.084 78.2788 428.938 78.2788H429.884C430.738 78.2788 431.43 77.5888 431.43 76.7377V74.3058C431.43 73.4546 430.738 72.7646 429.884 72.7646Z" fill="#F4C3CF"/>
<path class='svg-fill-accent-first' d="M387.245 72.7493H341.774C340.92 72.7493 340.228 73.4392 340.228 74.2904V76.7223C340.228 77.5734 340.92 78.2634 341.774 78.2634H387.245C388.099 78.2634 388.791 77.5734 388.791 76.7223V74.2904C388.791 73.4392 388.099 72.7493 387.245 72.7493Z" fill="#F4C3CF"/>
<path class='svg-fill-accent-first' d="M401.586 64.2053H376.912C376.058 64.2053 375.366 64.8953 375.366 65.7464V68.1783C375.366 69.0295 376.058 69.7195 376.912 69.7195H401.586C402.44 69.7195 403.132 69.0295 403.132 68.1783V65.7464C403.132 64.8953 402.44 64.2053 401.586 64.2053Z" fill="#F4C3CF"/>
<path class='svg-fill-accent-last' d="M423.675 72.7307H392.511C391.657 72.7307 390.965 73.4207 390.965 74.2718V76.7376C390.965 77.5888 391.657 78.2787 392.511 78.2787H423.675C424.529 78.2787 425.221 77.5888 425.221 76.7376V74.2718C425.221 73.4207 424.529 72.7307 423.675 72.7307Z" fill="#5AA5BD"/>
<path class='svg-fill-accent-first' d="M366.448 119.492H341.774C340.92 119.492 340.228 120.182 340.228 121.033V123.465C340.228 124.316 340.92 125.006 341.774 125.006H366.448C367.302 125.006 367.994 124.316 367.994 123.465V121.033C367.994 120.182 367.302 119.492 366.448 119.492Z" fill="#F4C3CF"/>
<path class='svg-fill-accent-first' d="M368.962 145.105H341.774C340.92 145.105 340.228 145.795 340.228 146.646V149.078C340.228 149.929 340.92 150.619 341.774 150.619H368.962C369.816 150.619 370.508 149.929 370.508 149.078V146.646C370.508 145.795 369.816 145.105 368.962 145.105Z" fill="#F4C3CF"/>
<path class='svg-fill-accent-last' d="M393.302 136.58H349.43C348.576 136.58 347.884 137.27 347.884 138.121V140.553C347.884 141.404 348.576 142.094 349.43 142.094H393.302C394.156 142.094 394.848 141.404 394.848 140.553V138.121C394.848 137.27 394.156 136.58 393.302 136.58Z" fill="#5AA5BD"/>
<path class='svg-fill-accent-last' d="M421.297 136.58H399.022C398.168 136.58 397.476 137.27 397.476 138.121V140.553C397.476 141.404 398.168 142.094 399.022 142.094H421.297C422.151 142.094 422.843 141.404 422.843 140.553V138.121C422.843 137.27 422.151 136.58 421.297 136.58Z" fill="#5AA5BD"/>
<path class='svg-fill-accent-first' d="M429.884 128.051H428.938C428.084 128.051 427.391 128.741 427.391 129.592V132.024C427.391 132.875 428.084 133.565 428.938 133.565H429.884C430.738 133.565 431.43 132.875 431.43 132.024V129.592C431.43 128.741 430.738 128.051 429.884 128.051Z" fill="#F4C3CF"/>
<path class='svg-fill-accent-first' d="M436.946 119.492H436C435.146 119.492 434.454 120.182 434.454 121.033V123.465C434.454 124.316 435.146 125.006 436 125.006H436.946C437.8 125.006 438.492 124.316 438.492 123.465V121.033C438.492 120.182 437.8 119.492 436.946 119.492Z" fill="#F4C3CF"/>
<path class='svg-fill-accent-first' d="M387.245 128.036H341.774C340.92 128.036 340.228 128.726 340.228 129.577V132.009C340.228 132.86 340.92 133.55 341.774 133.55H387.245C388.099 133.55 388.791 132.86 388.791 132.009V129.577C388.791 128.726 388.099 128.036 387.245 128.036Z" fill="#F4C3CF"/>
<path class='svg-fill-accent-last' d="M401.586 119.492H371.092C370.238 119.492 369.546 120.182 369.546 121.033V123.465C369.546 124.316 370.238 125.006 371.092 125.006H401.586C402.439 125.006 403.132 124.316 403.132 123.465V121.033C403.132 120.182 402.439 119.492 401.586 119.492Z" fill="#5AA5BD"/>
<path class='svg-fill-accent-last' d="M431.491 119.492H406.817C405.963 119.492 405.271 120.182 405.271 121.033V123.465C405.271 124.316 405.963 125.006 406.817 125.006H431.491C432.345 125.006 433.037 124.316 433.037 123.465V121.033C433.037 120.182 432.345 119.492 431.491 119.492Z" fill="#5AA5BD"/>
<path class='svg-fill-accent-last' d="M372.039 111.228H371.092C370.239 111.228 369.546 111.918 369.546 112.769V115.201C369.546 116.052 370.239 116.742 371.092 116.742H372.039C372.893 116.742 373.585 116.052 373.585 115.201V112.769C373.585 111.918 372.893 111.228 372.039 111.228Z" fill="#5AA5BD"/>
<path class='svg-fill-accent-first' d="M366.448 111.228H341.774C340.92 111.228 340.228 111.918 340.228 112.769V115.201C340.228 116.052 340.92 116.742 341.774 116.742H366.448C367.302 116.742 367.994 116.052 367.994 115.201V112.769C367.994 111.918 367.302 111.228 366.448 111.228Z" fill="#F4C3CF"/>
<path class='svg-fill-accent-first' d="M401.586 111.228H376.912C376.058 111.228 375.366 111.918 375.366 112.769V115.201C375.366 116.052 376.058 116.742 376.912 116.742H401.586C402.44 116.742 403.132 116.052 403.132 115.201V112.769C403.132 111.918 402.44 111.228 401.586 111.228Z" fill="#F4C3CF"/>
<path class='svg-fill-accent-last' d="M423.675 128.02H392.511C391.657 128.02 390.965 128.71 390.965 129.561V132.027C390.965 132.878 391.657 133.568 392.511 133.568H423.675C424.529 133.568 425.221 132.878 425.221 132.027V129.561C425.221 128.71 424.529 128.02 423.675 128.02Z" fill="#5AA5BD"/>
<path d="M76.8887 242.901C75.833 242.979 74.7723 242.848 73.7672 242.517C72.762 242.186 71.8322 241.661 71.0307 240.971C70.2292 240.282 69.5718 239.442 69.0959 238.499C68.6201 237.557 68.3351 236.53 68.2574 235.478C68.1796 234.425 68.3106 233.368 68.6427 232.366C68.9749 231.364 69.5018 230.437 70.1933 229.638C70.8848 228.839 71.7275 228.184 72.6731 227.709C73.6187 227.235 74.6487 226.951 75.7045 226.874C76.1917 226.837 76.6813 226.845 77.167 226.898" stroke="#F4C3CF" stroke-width="3" stroke-linecap="round" stroke-linejoin="round"/>
<path class='svg-fill-accent-first' d="M75.8401 224.01V250.459C75.8401 252.911 76.8174 255.263 78.557 256.997C80.2966 258.731 82.6559 259.706 85.1161 259.706H100.765C103.225 259.706 105.584 258.731 107.324 256.997C109.063 255.263 110.041 252.911 110.041 250.459V224.01H75.8401ZM89.6768 243.376C89.7721 243.431 89.851 243.51 89.9053 243.605C89.9597 243.701 89.9875 243.809 89.986 243.918C89.986 244.082 89.9208 244.239 89.8049 244.354C89.6889 244.47 89.5316 244.535 89.3676 244.535C89.2595 244.537 89.1529 244.51 89.0584 244.458L82.8744 240.759C82.7682 240.709 82.6783 240.63 82.6154 240.532C82.5525 240.433 82.5191 240.318 82.5191 240.201C82.5191 240.084 82.5525 239.97 82.6154 239.871C82.6783 239.772 82.7682 239.693 82.8744 239.643L89.0584 235.945C89.1529 235.893 89.2595 235.866 89.3676 235.868C89.5316 235.868 89.6889 235.933 89.8049 236.048C89.9208 236.164 89.986 236.321 89.986 236.484C89.9875 236.594 89.9597 236.702 89.9053 236.797C89.851 236.893 89.7721 236.972 89.6768 237.027L84.3555 240.207L89.6768 243.376ZM102.719 240.756L96.5349 244.455C96.4403 244.507 96.3337 244.533 96.2257 244.532C96.1438 244.533 96.0625 244.518 95.987 244.487C95.9114 244.456 95.8431 244.409 95.7866 244.35C95.7277 244.293 95.6811 244.225 95.6498 244.15C95.6184 244.075 95.6029 243.994 95.6042 243.912C95.6026 243.803 95.6305 243.695 95.6848 243.599C95.7392 243.504 95.8181 243.425 95.9134 243.37L101.235 240.192L95.9134 237.011C95.8181 236.956 95.7392 236.877 95.6848 236.782C95.6305 236.686 95.6026 236.578 95.6042 236.469C95.6042 236.305 95.6693 236.148 95.7853 236.033C95.9013 235.917 96.0586 235.852 96.2226 235.852C96.3306 235.851 96.4372 235.877 96.5318 235.929L102.716 239.628C102.822 239.678 102.912 239.757 102.975 239.855C103.038 239.954 103.071 240.069 103.071 240.186C103.071 240.303 103.038 240.417 102.975 240.516C102.912 240.615 102.822 240.694 102.716 240.744L102.719 240.756Z" fill="#F4C3CF"/>
<path class='svg-fill-accent-last' d="M133.207 213.352L128.979 205.705" stroke="#349ABC" stroke-width="3" stroke-linecap="round" stroke-linejoin="round"/>
<path class='svg-fill-accent-last' d="M123.822 214.169H147.25" stroke="#349ABC" stroke-width="3" stroke-linecap="round" stroke-linejoin="round"/>
<path class='svg-fill-accent-last' d="M144.006 239.073C143.709 238.774 143.317 238.587 142.896 238.545C142.476 238.502 142.054 238.606 141.702 238.839C141.35 239.071 141.09 239.419 140.966 239.821C140.842 240.224 140.863 240.657 141.024 241.046C141.185 241.436 141.476 241.757 141.849 241.956C142.221 242.155 142.651 242.219 143.066 242.137C143.48 242.056 143.853 241.833 144.121 241.507C144.389 241.182 144.536 240.774 144.535 240.353C144.539 240.115 144.494 239.879 144.403 239.659C144.312 239.439 144.177 239.24 144.006 239.073Z" fill="#349ABC"/>
<path class='svg-fill-accent-last' d="M142.72 236.373C143.141 236.376 143.549 236.234 143.876 235.97C144.203 235.706 144.427 235.337 144.512 234.927C144.596 234.516 144.535 234.089 144.338 233.718C144.141 233.348 143.822 233.057 143.434 232.895C143.046 232.733 142.614 232.711 142.211 232.831C141.808 232.952 141.46 233.208 141.226 233.556C140.992 233.904 140.886 234.322 140.927 234.74C140.967 235.157 141.152 235.547 141.449 235.843C141.614 236.013 141.812 236.147 142.03 236.238C142.249 236.33 142.484 236.376 142.72 236.373Z" fill="#349ABC"/>
<path class='svg-fill-accent-last' d="M144.006 247.423C144.306 247.127 144.494 246.736 144.537 246.317C144.58 245.898 144.476 245.477 144.242 245.127C144.009 244.776 143.661 244.516 143.257 244.393C142.853 244.269 142.419 244.289 142.028 244.45C141.638 244.61 141.315 244.9 141.115 245.271C140.915 245.641 140.85 246.07 140.932 246.483C141.013 246.896 141.236 247.268 141.562 247.536C141.888 247.803 142.298 247.95 142.72 247.95C142.959 247.954 143.197 247.909 143.418 247.819C143.639 247.728 143.839 247.593 144.006 247.423Z" fill="#349ABC"/>
<path class='svg-fill-accent-last' d="M149.553 219.748L145.444 214.418H125.627L121.518 219.748C121.124 220.239 120.906 220.848 120.899 221.477V253.92C120.915 254.44 121.064 254.946 121.333 255.392C121.602 255.837 121.98 256.206 122.433 256.463C123.704 257.252 125.324 258.473 125.438 259.641H145.632C145.744 258.473 147.364 257.252 148.635 256.463C149.087 256.204 149.464 255.834 149.731 255.387C149.998 254.941 150.145 254.434 150.159 253.914V221.477C150.154 220.849 149.941 220.241 149.553 219.748ZM140.951 225.971L143.115 222.371C143.145 222.313 143.189 222.265 143.244 222.23C143.298 222.195 143.36 222.174 143.425 222.17C143.492 222.172 143.558 222.191 143.616 222.226C143.673 222.261 143.721 222.311 143.752 222.371L145.917 225.971C145.948 226.026 145.964 226.089 145.963 226.153C145.964 226.2 145.955 226.246 145.937 226.29C145.919 226.333 145.892 226.373 145.858 226.405C145.825 226.44 145.785 226.467 145.741 226.486C145.697 226.504 145.649 226.514 145.601 226.513C145.538 226.511 145.477 226.493 145.423 226.461C145.368 226.429 145.324 226.383 145.292 226.328L143.437 223.246L141.582 226.328C141.55 226.383 141.505 226.428 141.451 226.461C141.397 226.493 141.336 226.511 141.273 226.513C141.225 226.514 141.177 226.504 141.133 226.486C141.089 226.467 141.049 226.44 141.016 226.405C140.982 226.373 140.954 226.334 140.936 226.29C140.917 226.247 140.907 226.2 140.908 226.153C140.906 226.089 140.921 226.026 140.951 225.971ZM141.093 227.327C141.155 227.281 141.23 227.257 141.307 227.259C141.355 227.259 141.402 227.268 141.446 227.287C141.49 227.305 141.53 227.333 141.563 227.367C141.598 227.4 141.625 227.44 141.643 227.484C141.661 227.528 141.669 227.575 141.668 227.623C141.67 227.667 141.663 227.711 141.646 227.752C141.63 227.793 141.605 227.83 141.573 227.86L141.436 227.993C141.265 228.158 141.13 228.357 141.038 228.577C140.947 228.797 140.901 229.034 140.905 229.272C140.894 229.494 140.931 229.715 141.013 229.922C141.094 230.128 141.219 230.315 141.378 230.471C141.465 230.542 141.574 230.58 141.687 230.579C141.753 230.577 141.816 230.555 141.869 230.515C141.921 230.475 141.959 230.42 141.978 230.357L142.717 228.131C142.783 227.92 142.894 227.724 143.041 227.558C143.141 227.456 143.26 227.377 143.392 227.324C143.524 227.271 143.666 227.245 143.808 227.25C143.955 227.249 144.1 227.279 144.235 227.336C144.37 227.393 144.492 227.477 144.593 227.583C144.816 227.805 144.989 228.072 145.104 228.364C145.218 228.657 145.271 228.97 145.258 229.284C145.26 229.655 145.179 230.022 145.021 230.359C144.864 230.695 144.633 230.992 144.346 231.229C144.317 231.254 144.283 231.273 144.246 231.284C144.21 231.296 144.171 231.3 144.133 231.297C144.085 231.297 144.038 231.288 143.994 231.27C143.95 231.252 143.91 231.226 143.876 231.192C143.842 231.159 143.816 231.119 143.798 231.075C143.78 231.031 143.771 230.984 143.771 230.936C143.769 230.892 143.776 230.847 143.792 230.805C143.809 230.764 143.834 230.727 143.867 230.696L144.003 230.563C144.174 230.397 144.309 230.198 144.4 229.978C144.491 229.758 144.536 229.522 144.532 229.284C144.542 229.063 144.506 228.841 144.425 228.635C144.344 228.428 144.22 228.241 144.062 228.085C143.974 228.015 143.865 227.976 143.752 227.977C143.687 227.979 143.623 228.001 143.571 228.041C143.518 228.081 143.48 228.136 143.462 228.199L142.72 230.425C142.657 230.635 142.552 230.83 142.41 230.998C142.311 231.099 142.192 231.179 142.06 231.232C141.928 231.285 141.786 231.31 141.644 231.306C141.497 231.307 141.352 231.277 141.217 231.22C141.082 231.163 140.96 231.079 140.858 230.973C140.636 230.75 140.462 230.484 140.348 230.192C140.234 229.899 140.181 229.586 140.194 229.272C140.19 228.901 140.269 228.535 140.424 228.199C140.58 227.862 140.808 227.565 141.093 227.327ZM140.923 232.773C141.339 232.357 141.886 232.098 142.472 232.04C143.058 231.981 143.647 232.127 144.137 232.453C144.627 232.778 144.989 233.263 145.16 233.824C145.332 234.386 145.303 234.99 145.078 235.532C144.853 236.075 144.446 236.523 143.927 236.8C143.408 237.077 142.808 237.166 142.231 237.052C141.653 236.938 141.133 236.627 140.759 236.174C140.386 235.72 140.181 235.151 140.181 234.564C140.175 234.231 140.238 233.9 140.366 233.592C140.494 233.284 140.683 233.005 140.923 232.773ZM140.286 248.57C140.237 248.519 140.203 248.454 140.19 248.385C140.177 248.315 140.184 248.243 140.212 248.177C140.239 248.112 140.285 248.056 140.344 248.016C140.402 247.976 140.472 247.954 140.543 247.953H140.942C140.52 247.542 140.255 246.997 140.192 246.412C140.129 245.828 140.272 245.239 140.596 244.748C140.92 244.256 141.405 243.892 141.969 243.718C142.532 243.544 143.139 243.57 143.685 243.793C144.231 244.015 144.683 244.42 144.963 244.938C145.242 245.455 145.333 246.054 145.219 246.631C145.105 247.208 144.793 247.728 144.337 248.101C143.882 248.474 143.31 248.678 142.72 248.678H140.555C140.505 248.68 140.455 248.671 140.409 248.653C140.363 248.634 140.321 248.606 140.286 248.57ZM145.942 249.941L143.777 253.541C143.745 253.601 143.698 253.651 143.641 253.686C143.583 253.721 143.517 253.74 143.449 253.742C143.385 253.738 143.322 253.717 143.268 253.682C143.214 253.647 143.17 253.598 143.14 253.541L140.976 249.941C140.944 249.886 140.928 249.823 140.929 249.759C140.929 249.712 140.939 249.665 140.957 249.622C140.976 249.578 141.003 249.539 141.038 249.507C141.07 249.472 141.11 249.444 141.154 249.425C141.199 249.407 141.246 249.398 141.294 249.399C141.357 249.401 141.419 249.419 141.473 249.451C141.527 249.484 141.572 249.529 141.603 249.584L143.459 252.666L145.314 249.584C145.345 249.529 145.39 249.483 145.444 249.451C145.498 249.419 145.56 249.401 145.623 249.399C145.719 249.4 145.81 249.438 145.878 249.505C145.946 249.573 145.984 249.664 145.985 249.759C145.987 249.823 145.972 249.886 145.942 249.941ZM147.342 242.781C147.309 242.815 147.269 242.842 147.225 242.86C147.181 242.878 147.133 242.887 147.086 242.886H142.72C142.133 242.885 141.564 242.682 141.11 242.31C140.657 241.939 140.347 241.422 140.232 240.848C140.118 240.274 140.207 239.678 140.484 239.162C140.761 238.646 141.209 238.241 141.751 238.017C142.294 237.794 142.897 237.764 143.459 237.934C144.021 238.104 144.506 238.462 144.833 238.949C145.159 239.435 145.306 240.019 145.249 240.602C145.192 241.184 144.934 241.729 144.519 242.143L144.501 242.162H147.086C147.133 242.161 147.181 242.171 147.225 242.189C147.269 242.208 147.309 242.235 147.342 242.27C147.377 242.303 147.404 242.342 147.423 242.386C147.442 242.43 147.451 242.478 147.45 242.525C147.45 242.573 147.441 242.62 147.422 242.664C147.404 242.708 147.376 242.748 147.342 242.781Z" fill="#349ABC"/>
<path d="M226.232 127.992C226.359 124.007 226.297 117.735 224.878 114.995C222.624 110.646 224.726 106.004 229.336 110.753C231.965 113.46 233.254 117.05 233.879 119.636" stroke="#15303F" stroke-width="3" stroke-linecap="round" stroke-linejoin="round"/>
<path d="M265.16 121.597C269.612 121.597 273.221 117.999 273.221 113.561C273.221 109.123 269.612 105.526 265.16 105.526C260.708 105.526 257.099 109.123 257.099 113.561C257.099 117.999 260.708 121.597 265.16 121.597Z" stroke="#15303F" stroke-width="3" stroke-linecap="round" stroke-linejoin="round"/>
<path d="M212.949 260.631C236.51 258.877 241.197 179.188 242.013 176.467C243.649 171.091 238.513 169.831 239.187 165.574C239.861 161.318 239.339 159.41 239.339 159.41C228.279 157.616 217.537 143.752 217.537 143.752C217.537 143.752 216.424 144.563 213.255 147.263C210.085 149.963 206.548 145.814 202.931 149.95C200.544 152.709 174.534 196.236 174.534 196.236" stroke="#15303F" stroke-width="3" stroke-linecap="round" stroke-linejoin="round"/>
<path d="M240.143 165.447C240.91 160.864 241.213 158.87 241.213 158.87C229.435 157.064 217.29 142.26 217.29 142.26C217.29 142.26 216.09 143.141 212.683 146.079C211.31 147.262 209.9 147.253 208.422 147.111C207.38 159.967 230.514 171.412 241.473 171.951C240.774 168.863 239.565 168.927 240.143 165.447Z" fill="#15303F"/>
<path d="M159.222 188.934C159.222 188.934 173.167 176.938 181.262 184.496" stroke="#15303F" stroke-width="3" stroke-linecap="round" stroke-linejoin="round"/>
<path d="M212.701 153.43L236.064 166.97L247.758 139.409C259.041 139.427 258.992 133.318 256.629 133.109C254.267 132.899 242.923 134.487 242.923 134.487C242.923 134.487 243.29 133.664 252.508 131.919C261.725 130.175 259.993 125.055 258.011 124.916C256.03 124.778 241.383 128.436 241.383 128.436L253.967 123.958C258.447 122.54 258.605 118.212 256.265 117.602C254.719 117.198 246.475 119.683 239.951 121.957C239.951 121.957 247.792 117.95 251.512 115.528C255.232 113.105 252.631 109.946 250.458 110.143C248.284 110.34 233.183 120.407 230.307 122.9C227.432 125.394 212.701 153.43 212.701 153.43Z" stroke="#15303F" stroke-width="3" stroke-linecap="round" stroke-linejoin="round"/>
<path d="M197.489 227.074C197.914 226.974 198.346 226.907 198.781 226.874C199.962 226.788 201.148 226.963 202.254 227.386C203.36 227.809 204.359 228.47 205.179 229.321C206 230.173 206.622 231.194 207.002 232.313C207.381 233.431 207.509 234.619 207.376 235.793C207.242 236.966 206.851 238.095 206.23 239.101C205.609 240.106 204.773 240.963 203.782 241.61C202.791 242.257 201.67 242.678 200.497 242.844C199.324 243.01 198.129 242.916 196.997 242.568" stroke="#15303F" stroke-width="3" stroke-linecap="round" stroke-linejoin="round"/>
<path d="M164.052 224.01V250.459C164.052 252.911 165.029 255.263 166.769 256.997C168.508 258.731 170.868 259.706 173.328 259.706H188.974C191.434 259.706 193.793 258.731 195.533 256.997C197.272 255.263 198.25 252.911 198.25 250.459V224.01H164.052ZM177.886 243.376C177.981 243.431 178.06 243.51 178.114 243.605C178.169 243.701 178.196 243.809 178.195 243.918C178.195 244.082 178.13 244.239 178.014 244.354C177.898 244.47 177.74 244.535 177.576 244.535C177.468 244.537 177.362 244.51 177.267 244.458L171.083 240.759C170.977 240.709 170.887 240.63 170.824 240.532C170.761 240.433 170.728 240.318 170.728 240.201C170.728 240.084 170.761 239.97 170.824 239.871C170.887 239.772 170.977 239.693 171.083 239.643L177.267 235.945C177.362 235.893 177.468 235.866 177.576 235.868C177.658 235.868 177.739 235.884 177.814 235.915C177.89 235.946 177.958 235.992 178.015 236.049C178.075 236.106 178.121 236.174 178.153 236.249C178.184 236.325 178.2 236.406 178.198 236.487C178.199 236.597 178.172 236.705 178.117 236.8C178.063 236.896 177.984 236.975 177.889 237.03L172.567 240.211L177.886 243.376ZM185.616 234.259L180.638 246.665C180.605 246.728 180.562 246.785 180.511 246.834C180.453 246.893 180.384 246.939 180.308 246.971C180.232 247.003 180.151 247.019 180.069 247.019C179.905 247.019 179.747 246.954 179.631 246.839C179.515 246.723 179.45 246.566 179.45 246.403C179.45 246.313 179.468 246.224 179.503 246.141L184.481 233.735C184.515 233.668 184.56 233.608 184.614 233.556C184.67 233.498 184.738 233.452 184.813 233.422C184.888 233.391 184.969 233.376 185.05 233.377C185.214 233.377 185.371 233.442 185.487 233.558C185.603 233.673 185.668 233.83 185.668 233.994C185.671 234.088 185.654 234.183 185.619 234.271L185.616 234.259ZM194.041 240.744L187.857 244.442C187.763 244.495 187.656 244.521 187.548 244.519C187.384 244.519 187.227 244.455 187.111 244.339C186.995 244.223 186.93 244.067 186.93 243.903C186.928 243.793 186.956 243.685 187.01 243.59C187.065 243.495 187.144 243.415 187.239 243.361L192.557 240.183L187.239 237.002C187.144 236.947 187.065 236.868 187.01 236.773C186.956 236.677 186.928 236.569 186.93 236.459C186.928 236.378 186.943 236.297 186.975 236.221C187.006 236.146 187.053 236.078 187.112 236.022C187.17 235.964 187.238 235.918 187.313 235.887C187.389 235.856 187.47 235.84 187.551 235.84C187.659 235.838 187.766 235.865 187.86 235.917L194.044 239.616C194.151 239.665 194.24 239.744 194.303 239.843C194.366 239.942 194.4 240.057 194.4 240.174C194.4 240.291 194.366 240.405 194.303 240.504C194.24 240.603 194.151 240.682 194.044 240.731L194.041 240.744Z" fill="#15303F"/>
<path d="M2 260.479H508" stroke="#15303F" stroke-width="3" stroke-linecap="round" stroke-linejoin="round"/>
<path d="M265.046 129.167L263.333 102.773L229.206 104.977L230.366 122.836C233.399 120.25 248.3 110.331 250.448 110.137C252.597 109.943 255.222 113.102 251.503 115.522C247.783 117.941 239.942 121.951 239.942 121.951C246.466 119.676 254.719 117.192 256.255 117.596C258.599 118.212 258.438 122.528 253.958 123.951L241.373 128.43C241.373 128.43 256.02 124.771 258.002 124.91C259.984 125.049 261.713 130.168 252.498 131.913C243.284 133.657 242.913 134.48 242.913 134.48C242.913 134.48 254.261 132.89 256.62 133.103C258.979 133.315 259.032 139.421 247.749 139.403L247.684 139.554L256.379 138.993C257.595 138.916 258.785 138.6 259.879 138.064C260.973 137.529 261.951 136.783 262.755 135.87C263.56 134.958 264.177 133.896 264.57 132.746C264.963 131.595 265.125 130.379 265.046 129.167Z" fill="#15303F"/>
</svg>
